<?xml version="1.0" encoding="utf-8"?>
<!-- Generator: Adobe Illustrator 16.0.0, SVG Export Plug-In . SVG Version: 6.00 Build 0)  -->
<!DOCTYPE svg PUBLIC "-//W3C//DTD SVG 1.1//EN" "http://www.w3.org/Graphics/SVG/1.1/DTD/svg11.dtd">
<svg version="1.1" id="Capa_1" xmlns="http://www.w3.org/2000/svg" xmlns:xlink="http://www.w3.org/1999/xlink" x="0px" y="0px"
	 width="64px" height="64px" viewBox="0 0 64 64" enable-background="new 0 0 64 64" xml:space="preserve">
<g>
	<path fill="#000" d="M55.491,30.795l-6.857-6.857c-0.339-0.339-0.741-0.509-1.206-0.509c-0.464,0-0.865,0.17-1.205,0.509
		c-0.339,0.34-0.509,0.741-0.509,1.206v3.429H35.429V18.286h3.429c0.464,0,0.866-0.17,1.205-0.509
		c0.339-0.34,0.509-0.741,0.509-1.205c0-0.465-0.17-0.867-0.509-1.206l-6.857-6.857C32.866,8.17,32.465,8,32,8
		s-0.866,0.17-1.206,0.509l-6.856,6.857c-0.34,0.34-0.509,0.741-0.509,1.206c0,0.464,0.169,0.865,0.509,1.205
		c0.34,0.339,0.741,0.509,1.205,0.509h3.429v10.286H18.286v-3.429c0-0.465-0.17-0.866-0.51-1.206
		c-0.339-0.339-0.741-0.509-1.205-0.509s-0.866,0.17-1.205,0.509l-6.857,6.857C8.17,31.134,8,31.536,8,32
		c0,0.465,0.17,0.866,0.509,1.205l6.857,6.857c0.339,0.339,0.74,0.51,1.205,0.51s0.866-0.171,1.205-0.51
		c0.34-0.339,0.51-0.741,0.51-1.205v-3.43h10.285v10.286h-3.428c-0.465,0-0.867,0.17-1.206,0.509
		c-0.339,0.34-0.509,0.741-0.509,1.206c0,0.464,0.17,0.866,0.509,1.206l6.857,6.856C31.135,55.83,31.536,56,32,56
		c0.465,0,0.867-0.17,1.206-0.509l6.856-6.856c0.34-0.34,0.509-0.742,0.509-1.206c0-0.465-0.169-0.866-0.509-1.206
		c-0.339-0.339-0.741-0.509-1.205-0.509h-3.429V35.429h10.286v3.429c0,0.465,0.169,0.866,0.508,1.206
		c0.34,0.339,0.742,0.509,1.206,0.509s0.866-0.17,1.205-0.509l6.857-6.857C55.83,32.866,56,32.465,56,32
		C56,31.536,55.83,31.134,55.491,30.795z"/>
</g>
</svg>
